# xmcd
#
# Track frame offsets:
#	150
#	18601
#	31677
#	47288
#	62589
#	78209
#	95296
#	113264
#	127064
#	144259
#
# Disc length: 2150 seconds
#
# Revision: 1
# Processed by: cddbd v1.5.1PL0 Copyright (c) Steve Scherf et al.
# Submitted via: audiograbber 1.83.01
#
DISCID=6b08640a
DTITLE=Μάκης Χριστοδουλόπουλος - Παραλίγο να πάρω τους δρόμους
DYEAR=1900
DGENRE=
TTITLE0=Έπαιξα και έχασα
TTITLE1=Παραλίγο να πάρω τους δρόμους
TTITLE2=’ντε και του χρόνου
TTITLE3=Δεν με σκέφτεσαι
TTITLE4=Δεν κοιμάμαι πιά τα βράδια
TTITLE5=Αίσθημα μου δυνατό
TTITLE6=Βάλτε φωτιά στο χωρισμό
TTITLE7=Όταν ένας άντρας κλαίει
TTITLE8=Η αγάπη είναι πάθος
TTITLE9=Ραγισμένα μάτια
EXTD=
EXTT0=
EXTT1=
EXTT2=
EXTT3=
EXTT4=
EXTT5=
EXTT6=
EXTT7=
EXTT8=
EXTT9=
PLAYORDER=
